/* XPM */
static char * collectible_xpm[] = {
"16 16 3 1",
" 	c #FFFFFF",
".	c #FF0000",
"+	c #8B0000",
"                ",
"       ..       ",
"      ....      ",
"     ......     ",
"    ........    ",
"   ....++....   ",
"   ...++++...   ",
"  ...++++++...  ",
"  ...++++++...  ",
"   ...++++...   ",
"   ....++....   ",
"    ........    ",
"     ......     ",
"      ....      ",
"       ..       ",
"                "};
