/* XPM */
static const char *exit_2[] = {
/* columns rows colors chars-per-pixel */
"64 64 198 2 ",
"   c #000001",
".  c #090504",
"X  c #03060A",
"o  c #06080D",
"O  c #090A0F",
"+  c #020517",
"@  c #060B12",
"#  c #090C13",
"$  c #0B0E19",
"%  c #0C121C",
"&  c #10151D",
"*  c #0F1722",
"=  c #0F1927",
"-  c #07192B",
";  c #111723",
":  c #131C2A",
">  c #0D1E35",
",  c #131D32",
"<  c #0C253C",
"1  c #152334",
"2  c #1A2434",
"3  c #14253C",
"4  c #192539",
"5  c #162839",
"6  c #1C2B3C",
"7  c #223639",
"8  c #2F4238",
"9  c #35463D",
"0  c #0F2845",
"q  c #142C43",
"w  c #1A2B44",
"e  c #172F49",
"r  c #1D2F4B",
"t  c #0E3344",
"y  c #1B3246",
"u  c #163448",
"i  c #1C344B",
"p  c #1D3A4D",
"a  c #1F3855",
"s  c #202D46",
"d  c #212F4A",
"f  c #223345",
"g  c #23344D",
"h  c #233B4D",
"j  c #223653",
"k  c #263755",
"l  c #233B53",
"z  c #2A3B53",
"x  c #233D5A",
"c  c #2A3E5A",
"v  c #2E4645",
"b  c #354846",
"n  c #354D4C",
"m  c #3E544A",
"M  c #2B4355",
"N  c #284755",
"B  c #26415C",
"V  c #2A445B",
"C  c #2C4B5C",
"Z  c #32435E",
"A  c #344C5E",
"S  c #2E4363",
"D  c #2A4967",
"F  c #2B4D64",
"G  c #334461",
"H  c #354A65",
"J  c #354768",
"K  c #334C6B",
"L  c #3B4B69",
"P  c #2F5366",
"I  c #345363",
"U  c #3B5966",
"Y  c #34536D",
"T  c #3A516D",
"R  c #2D4E70",
"E  c #3B4D72",
"W  c #355371",
"Q  c #3B5372",
"!  c #395B75",
"~  c #3C557A",
"^  c #3C6274",
"/  c #3A6079",
"(  c #455749",
")  c #445959",
"_  c #4C604E",
"`  c #566749",
"'  c #466759",
"]  c #5C735A",
"[  c #5A795E",
"{  c #647B5A",
"}  c #435C68",
"|  c #435A77",
" . c #43557B",
".. c #425A79",
"X. c #486667",
"o. c #4C666C",
"O. c #546C61",
"+. c #567268",
"@. c #4C6C77",
"#. c #466A7A",
"$. c #587773",
"%. c #718959",
"&. c #5E807A",
"*. c #65836A",
"=. c #788B60",
"-. c #7A9268",
";. c #718F7C",
":. c #74927B",
">. c #A7B53D",
",. c #97A64C",
"<. c #9BAC4B",
"1. c #95A450",
"2. c #9EA953",
"3. c #859C69",
"4. c #8DA86E",
"5. c #93A562",
"6. c #99AC63",
"7. c #93A968",
"8. c #94A86A",
"9. c #8EA57B",
"0. c #92AB78",
"q. c #9EB176",
"w. c #A1AE69",
"e. c #A9BA6E",
"r. c #AFBD78",
"t. c #B1BF71",
"y. c #B7C053",
"u. c #CBD65F",
"i. c #D1DB5F",
"p. c #D3DC68",
"a. c #C7CF73",
"s. c #D5DE7B",
"d. c #435E81",
"f. c #485886",
"g. c #416383",
"h. c #496584",
"j. c #4C648C",
"k. c #476C89",
"l. c #55688C",
"z. c #4D7783",
"x. c #4B718D",
"c. c #537B83",
"v. c #5A7D84",
"b. c #56748D",
"n. c #4D6790",
"m. c #4D6C96",
"M. c #546490",
"N. c #506D92",
"B. c #596992",
"V. c #556E9B",
"C. c #596B9C",
"Z. c #4F7492",
"A. c #4D759B",
"S. c #537B95",
"D. c #5B759A",
"F. c #597A98",
"G. c #5B7B9B",
"H. c #627B86",
"J. c #617A9A",
"K. c #597AA4",
"L. c #5E7DA9",
"P. c #637CA2",
"I. c #607DAE",
"U. c #5D8583",
"Y. c #5B869F",
"T. c #688A87",
"R. c #62858C",
"E. c #748F87",
"W. c #769586",
"Q. c #638795",
"!. c #678E94",
"~. c #6A8D92",
"^. c #669794",
"/. c #6C9292",
"(. c #709A97",
"). c #5882A2",
"_. c #5D82B0",
"`. c #6486AB",
"'. c #6886B2",
"]. c #638AB4",
"[. c #78A7A5",
"{. c #97AC82",
"}. c #94B395",
"|. c #A3BB87",
" X c #A3BA92",
".X c #87A6A5",
"XX c #A1C19E",
"oX c #B1CCAD",
"OX c #D4DC87",
"+X c #C9D6A3",
"@X c #D2DCA1",
"#X c #DCE3A3",
"$X c #E4E9AF",
"%X c #E5E9B2",
"&X c #F3F5BA",
"*X c #F5F7C8",
"=X c #F7F9D1",
"-X c #FBFBE6",
/* pixels */
"                                                X X X X X X X X X X X X @ @ @ @                                                 ",
"                                                X X X X X X X X X X X X @ @ @ @                                                 ",
"                                                                                    # # X X                                     ",
"                                                                                    # # X X                                     ",
"                                        X X 1 1 z z H H | | k.k.A.A.Z.Z.h.h.T T 6 6         O O                                 ",
"                                        X X 1 1 z z H H | | k.k.A.A.Z.Z.h.h.T T 6 6         O O                                 ",
"                                O O 6 6 z z K K ! ! T T W W Y Y K K T T ~ ~ K.K.L.L.N.N.M M     O O                             ",
"                                O O 6 6 z z K K ! ! T T W W Y Y K K T T ~ ~ K.K.L.L.N.N.M M     O O                             ",
"                        o o : : f f M M V V g g q q 0 0 u u l l l l y y q q y y V V k.k.'.'.l.l.        X X                     ",
"                        o o : : f f M M V V g g q q 0 0 u u l l l l y y q q y y V V k.k.'.'.l.l.        X X                     ",
"                    X X 2 2 f f p p < < e e F F / / #.#.I I N N h h h h V V N N M M 3 3 H H P.P.l.l.- - X X                     ",
"                    X X 2 2 f f p p < < e e F F / / #.#.I I N N h h h h V V N N M M 3 3 H H P.P.l.l.- - X X                     ",
"                o o : : 6 6 5 5 p p k.k.).).Y.Y.S.S.z.z.z.z./ / ! ! u u y y h h C C Y Y y y < < J.J.G.G.    # #                 ",
"                o o : : 6 6 5 5 p p k.k.).).Y.Y.S.S.z.z.z.z./ / ! ! u u y y h h C C Y Y y y < < J.J.G.G.    # #                 ",
"                % % 1 1 1 1 Y Y G.G.).).#.#.I I P P c.c.T.T.!.!././././.@.@.C C p p C C ! ! M M q q J.J.| |     @ @             ",
"                % % 1 1 1 1 Y Y G.G.).).#.#.I I P P c.c.T.T.!.!././././.@.@.C C p p C C ! ! M M q q J.J.| |     @ @             ",
"            o o : : y y n.n.`.`.k.k.l l u u &.&.^.^.^.^.&.&.+.+.$.$.;.;.^.^.(.(.X.X.6 6 P P / / i i Q Q '.'.w w     X X         ",
"            o o : : y y n.n.`.`.k.k.l l u u &.&.^.^.^.^.&.&.+.+.$.$.;.;.^.^.(.(.X.X.6 6 P P / / i i Q Q '.'.w w     X X         ",
"        X X % % 3 3 A.A._._.I I 5 5 P P Y.Y.U.U.' ' ( ( { { %.%.%.%.{ { _ _ U.U.[.[.@.@.t t #.#.W W t t J.J.h.h.    O O         ",
"        X X % % 3 3 A.A._._.I I 5 5 P P Y.Y.U.U.' ' ( ( { { %.%.%.%.{ { _ _ U.U.[.[.@.@.t t #.#.W W t t J.J.h.h.    O O         ",
"        @ @ X X d.d.].].W W i i C C !.!.&.&.8 8 ` ` -.-.4.4.7.7.7.7.0.0.{.{.` ` ^.^.[.[.< < U U x.x.< < h.h.G.G.+ + # #         ",
"        @ @ X X d.d.].].W W i i C C !.!.&.&.8 8 ` ` -.-.4.4.7.7.7.7.0.0.{.{.` ` ^.^.[.[.< < U U x.x.< < h.h.G.G.+ + # #         ",
"        @ @ 3 3 `.`.m.m.i i u u c.c.c.c.7 7 [ [ |.|.r.r.<.<.<.<.<.<.,.,.6.6.{.{.*.*..X.XU U N N x.x.C C H H ).).5 5 # #         ",
"        @ @ 3 3 `.`.m.m.i i u u c.c.c.c.7 7 [ [ |.|.r.r.<.<.<.<.<.<.,.,.6.6.{.{.*.*..X.XU U N N x.x.C C H H ).).5 5 # #         ",
"    o o     Q Q I.I.R R u u @.@.R.R.v v +.+.}.}.+X+X%X%X$X$Xs.s.p.p.y.y.,.,.q.q.4.4..X.X@.@.u u S.S.W W B B ].].B B     o o     ",
"    o o     Q Q I.I.R R u u @.@.R.R.v v +.+.}.}.+X+X%X%X$X$Xs.s.p.p.y.y.,.,.q.q.4.4..X.X@.@.u u S.S.W W B B ].].B B     o o     ",
"        > > P.P.m.m.i i B B Q.Q.X.X.7 7 W.W. X Xe.e.a.a.*X*X-X-X*X*Xp.p.>.>.6.6.}.}..X.Xo.o.6 6 x.x.! ! g g _._.K K     @ @     ",
"        > > P.P.m.m.i i B B Q.Q.X.X.7 7 W.W. X Xe.e.a.a.*X*X-X-X*X*Xp.p.>.>.6.6.}.}..X.Xo.o.6 6 x.x.! ! g g _._.K K     @ @     ",
"X X     z z '.'.~ ~ q q Q Q G.G.p p m m W.W.q.q.w.w.<.<.i.i.&X&X-X-X=X=XOXOXt.t.oXoXW.W.b b z z k.k.F F S S _._.c c $ $ @ @     ",
"X X     z z '.'.~ ~ q q Q Q G.G.p p m m W.W.q.q.w.w.<.<.i.i.&X&X-X-X=X=XOXOXt.t.oXoXW.W.b b z z k.k.F F S S _._.c c $ $ @ @     ",
"X X     H H L.L.D D i i h.h.G.G.t t ) ) W.W.:.:.q.q.1.1.y.y.u.u.p.p.#X#X%X%X@X@XXXXX' ' b b I I Z.Z.a a ! ! L.L.r r = = o o     ",
"X X     H H L.L.D D i i h.h.G.G.t t ) ) W.W.:.:.q.q.1.1.y.y.u.u.p.p.#X#X%X%X@X@XXXXX' ' b b I I Z.Z.a a ! ! L.L.r r = = o o     ",
"        Q Q C.C.S S a a S.S.G.G.< < } } E.E.] ] 9.9.7.7.1.1.2.2.2.2.<.<.e.e.XXXX*.*.n n n n b.b.....> > k.k.A.A.> > : : o o     ",
"        Q Q C.C.S S a a S.S.G.G.< < } } E.E.] ] 9.9.7.7.1.1.2.2.2.2.<.<.e.e.XXXX*.*.n n n n b.b.....> > k.k.A.A.> > : : o o     ",
"X X      . .n.n.a a i i x.x.S.S.6 6 V V W.W.O.O.*.*.0.0.8.8.7.7.1.1.8.8.5.5.{ { ( ( v v } } b.b.a a g g _._.~ ~ , , = = X X     ",
"X X      . .n.n.a a i i x.x.S.S.6 6 V V W.W.O.O.*.*.0.0.8.8.7.7.1.1.8.8.5.5.{ { ( ( v v } } b.b.a a g g _._.~ ~ , , = = X X     ",
"X X     E E j.j.j j a a g.g.F.F.h h u u $.$.;.;.9 9 ] ] -.-.3.3.3.3.=.=.] ] m m v v X.X.H.H.L L < < N.N.L.L.w w 4 4 * * X X     ",
"X X     E E j.j.j j a a g.g.G.G.h h u u $.$.;.;.9 9 ] ] -.-.3.3.3.3.=.=.] ] m m v v X.X.H.H.L L < < N.N.L.L.w w 4 4 * * X X     ",
"        G G j.j.k k a a Y Y S.S.M M p p N N (.(.T.T.b b 9 9 ( ( ( ( b b 8 8 v v @.@.~.~.....3 3 K K ].].W W w w , , # #         ",
"        G G j.j.k k a a Y Y S.S.M M p p N N (.(.T.T.b b 9 9 ( ( ( ( b b 8 8 v v @.@.~.~.....3 3 K K ].].W W w w , , # #         ",
"        g g j.j.c c d d J J G.G.A A p p p p ^ ^ !.!.T.T.+.+.X.X.X.X.X.X.+.+.v.v.U.U.| | d d G G K.K.g.g.w w g g : : X X         ",
"        g g j.j.c c d d J J G.G.A A p p p p ^ ^ !.!.T.T.+.+.X.X.X.X.X.X.+.+.v.v.U.U.| | d d G G K.K.g.g.w w g g : : X X         ",
"        : :  . .c c 6 6 k k n.n.| | f f z z y y F F z.z.T.T.^.^././.~.~.R.R.@.@.A A j j  . .N.N.~ ~ g g k k s s % % X X         ",
"        : :  . .c c 6 6 k k n.n.| | f f z z y y F F z.z.T.T.^.^././.~.~.R.R.@.@.A A j j  . .N.N.~ ~ g g k k s s % % X X         ",
"    X X     Z Z H H 2 2 w w T T C.C.L L i i h h p p p p D D P P H H C C p p g g Y Y h.h. . .Z Z r r r r z z 2 2 X X             ",
"    X X     Z Z H H 2 2 w w T T C.C.L L i i h h p p p p D D P P H H C C p p g g Y Y h.h. . .Z Z r r r r z z 2 2 X X             ",
"            2 2 G G f f 6 6 z z n.n.G.G.V V x x B B a a p p j j p p z z H H T T T T G G j j j j c c G G d d @ @ X X             ",
"            2 2 G G f f 6 6 z z n.n.G.G.V V x x B B a a p p j j p p z z H H T T T T G G j j j j c c G G d d @ @ X X             ",
"        X X # # f f z z 2 2 6 6 z z Z.Z.D.D.T T l l l l k k k k z z c c c c c c d d r r J J f.f.E E k k = = X X                 ",
"        X X # # f f z z 2 2 6 6 z z Z.Z.D.D.T T l l l l k k k k z z c c c c c c d d r r J J f.f.E E k k = = X X                 ",
"            X X % % 6 6 7 7 6 6 4 4 y y j.j.J.J.h.h.L L g g j j w w r r k k z z G G  . .C.C.f.f.j j $ $ o o                     ",
"            X X % % 6 6 7 7 6 6 4 4 y y j.j.J.J.h.h.L L g g j j w w r r k k z z G G  . .C.C.f.f.j j $ $ o o                     ",
"                X X # # 6 6 6 6 : : , , 6 6 d.d.D.D.K.K.V.V.M.M.M.M.M.M.B.B.V.V.f.f. . .J J w w O O X X                         ",
"                X X # # 6 6 6 6 : : , , 6 6 d.d.D.D.K.K.V.V.M.M.M.M.M.M.B.B.V.V.f.f. . .J J w w O O X X                         ",
"                    X X % % : : : : : : : : s s S S ~ ~ V.V.C.C.C.C.V.V.j.j.~ ~ z z 3 3 $ $ @ @ X X                             ",
"                    X X % % : : : : : : : : s s S S ~ ~ V.V.C.C.C.C.V.V.j.j.~ ~ z z 3 3 $ $ @ @ X X                             ",
"                    X X X X O O @ @ & & ; ; * * ; ; : : , , > > q q w w : : . . O O @ @ @ @ X X                                 ",
"                    X X X X O O @ @ & & ; ; * * ; ; : : , , > > q q w w : : . . O O @ @ @ @ X X                                 ",
"                            . . X X O O O O $ $ % % $ $ # # & & $ $ @ @ o o @ @ @ @                                             ",
"                            . . X X O O O O $ $ % % $ $ # # & & $ $ @ @ o o @ @ @ @                                             ",
"                                X X X X X X     X X X X @ @ X X X X     X X                                                     ",
"                                X X X X X X     X X X X @ @ X X X X     X X                                                     ",
"                                            X X X X                                                                             ",
"                                            X X X X                                                                             "
};
