/* XPM */
static char * exit_xpm[] = {
"16 16 3 1",
" 	c #FFFFFF",
".	c #0000FF",
"+	c #000080",
"................",
".++++++++++++++.",
".++++++++++++++.",
".++..........++.",
".++..........++.",
".++..........++.",
".++..........++.",
".++....++....++.",
".++....++....++.",
".++....++....++.",
".++....++....++.",
".++..........++.",
".++..........++.",
".++++++++++++++.",
".++++++++++++++.",
"................"};
