/* XPM */
static const char *floor_resized[] = {
/* columns rows colors chars-per-pixel */
"64 64 41 1 ",
"  c #05263B",
". c #0A4164",
"X c #055888",
"o c #0570B2",
"O c #0471B4",
"+ c #0572B5",
"@ c #0673B6",
"# c #0673B7",
"$ c #0975B9",
"% c #0877BB",
"& c #0A76BA",
"* c #0D77BA",
"= c #0E78BB",
"- c #0979BD",
"; c #0979BE",
": c #0A7ABF",
"> c #0E78BC",
", c #0F78BC",
"< c #0F79BC",
"1 c #0E79BD",
"2 c #0F7ABE",
"3 c #0B7CBC",
"4 c #1179BD",
"5 c #1279BE",
"6 c #107ABE",
"7 c #117ABE",
"8 c #127ABF",
"9 c #137ABF",
"0 c #127DBF",
"q c #0B7CC1",
"w c #0C7CC1",
"e c #0F7EC3",
"r c #0D7FC4",
"t c #0C7FC5",
"y c #0E7FC4",
"u c #1381C2",
"i c #118BD4",
"p c #128CD5",
"a c #128ED6",
"s c #1492DC",
"d c #1694DE",
/* pixels */
"                                                                ",
"                                                                ",
"      77......  ..........  ppuu3333333333ss  XXXXXXXX......%%  ",
"      77......  ..........  ppuu3333333333ss  XXXXXXXX......%%  ",
"    >>........  ..........  --uu3333333333ss  XXXXXX........%%  ",
"    >>........  ..........  --uu3333333333ss  XXXXXX........%%  ",
"  77..........  ..........  @@uu3333333333ss  >>............%%  ",
"  77..........  ..........  @@uu3333333333ss  >>............%%  ",
"  ............  ..........  %%uu3333333333ss  ............77%%  ",
"  ............  ..........  %%uu3333333333ss  ............77%%  ",
"  >>>>>>>>>>>>  >>>>>>>>**  iissssssssssssii  **>>>>>>>>>>>>>>  ",
"  >>>>>>>>>>>>  >>>>>>>>**  iissssssssssssii  **>>>>>>>>>>>>>>  ",
"                                                                ",
"                                                                ",
"  ......==oo**..........>>@@@@@@@@  >>  XXXXXXXXXXee>>    ....  ",
"  ......==oo**..........>>@@@@@@@@  >>  XXXXXXXXXXee>>    ....  ",
"  ........  >>........................  ..............    ....  ",
"  ........  >>........................  ..............    ....  ",
"  ........  >>........................  ..............%%  ....  ",
"  ........  >>........................  ..............%%  ....  ",
"  %%%%%%..  >>........................  ..............77  ....  ",
"  %%%%%%..  >>........................  ..............77  ....  ",
"                                                          ....  ",
"                                                          ....  ",
"  ss  777777779977                    77..>>  uuuu------  ....  ",
"  ss  777777779977                    77..>>  uuuu------  ....  ",
"  ss  ....77..77..............  ..........>>  uu33333333  XXXX  ",
"  ss  ....77..77..............  ..........>>  uu33333333  XXXX  ",
"  ss  ........................  ..........>>  uu33333333  XXXX  ",
"  ss  ........................  ..........>>  uu33333333  XXXX  ",
"  ss  ........................  ..........>>  uu33333333  XXXX  ",
"  ss  ........................  ..........>>  uu33333333  XXXX  ",
"                                yy........==  uu33333333        ",
"                                yy........==  uu33333333        ",
"  ............%%XX  ss....XXXX  yy00....77@@  ppssssssss  qqqq  ",
"  ............%%XX  ss....XXXX  yy00....77@@  ppssssssss  qqqq  ",
"  ............77>>  ss....XXXX  ..eeXX..77@@              @@@@  ",
"  ............77>>  ss....XXXX  ..eeXX..77@@              @@@@  ",
"  ................  ss....XXXX  ....yy..77@@  ==..............  ",
"  ................  ss....XXXX  ....yy..77@@  ==..............  ",
"                    ss....XX..  ........77@@  ................  ",
"                    ss....XX..  ........77@@  ................  ",
"  3333  XXXXXX....  ss........  qqqqqq>>==@@  **>>>>>>>>>>>>>>  ",
"  3333  XXXXXX....  ss........  qqqqqq>>==@@  **>>>>>>>>>>>>>>  ",
"  3333  ..........  ss....XX..                                  ",
"  3333  ..........  ss....XX..                                  ",
"  3333  XX........  ss........  ..........>>eeXXXXXXXXXXXXXXXX  ",
"  3333  XX........  ss........  ..........>>eeXXXXXXXXXXXXXXXX  ",
"  3333  XX........  ss........    ........XXXX....XXXXXX....77  ",
"  3333  XX........  ss........    ........XXXX....XXXXXX....77  ",
"  3333  ..........  ss........    ........................>>    ",
"  3333  ..........  ss........    ........................>>    ",
"  3333  ..........  ss........    ......................77      ",
"  3333  ..........  ss........    ......................77      ",
"  3333  ..........                                              ",
"  3333  ..........                                              ",
"    33  XX........  >>%%        %%........XXXXXXXX  ss3333ddyy  ",
"    33  XX........  >>%%        %%........XXXXXXXX  ss3333ddyy  ",
"  --33  XXXX....XX  >>........................XXXX  ss33333333  ",
"  --33  XXXX....XX  >>........................XXXX  ss33333333  ",
"  XX--  XXXXXX....  >>........................XXXX  ss33333333  ",
"  XX--  XXXXXX....  >>........................XXXX  ss33333333  ",
"                                                                ",
"                                                                "
};
