/* XPM */
static char * player_xpm[] = {
"16 16 3 1",
" 	c #FFFFFF",
".	c #FFFF00",
"+	c #000000",
"                ",
"       ..       ",
"     ......     ",
"    ........    ",
"   ...++++...   ",
"  ..++++++...   ",
" ..++++++++..   ",
"..+++....+++..  ",
"..++......++..  ",
"..+++....+++..  ",
" ..++++++++..   ",
"  ..++++++..    ",
"   ...++++...   ",
"    ........    ",
"     ......     ",
"       ..       "};
