/* XPM */
static const char *wall_resized[] = {
/* columns rows colors chars-per-pixel */
"64 64 3 1 ",
"  c #170A01",
". c #231107",
"X c #2C170A",
/* pixels */
"                                                                ",
"                                                                ",
"....XXXXXXXXXX......  XXXXXXXXXXXXXXXXXXXXXXXXXXXXXXXXXXXXXXXX  ",
"....XXXXXXXXXX......  XXXXXXXXXXXXXXXXXXXXXXXXXXXXXXXXXXXXXXXX  ",
"..XXXXXXXXXXXXXXXXXX  XXXXXXXXXXXXXXXXXXXXXXXXXXXXXXXXXXXXXXXX  ",
"..XXXXXXXXXXXXXXXXXX  XXXXXXXXXXXXXXXXXXXXXXXXXXXXXXXXXXXXXXXX  ",
"..XXXXXXXXXXXXXXXXXX  XXXXXXXXXXXXXXXXXXXXXXXXXXXXXXXXXXXXXX..  ",
"..XXXXXXXXXXXXXXXXXX  XXXXXXXXXXXXXXXXXXXXXXXXXXXXXXXXXXXXXX..  ",
"..........XXXXXXXXXX  XXXXXXXXXXXXXXXXXXXXXXXXXXXX............  ",
"..........XXXXXXXXXX  XXXXXXXXXXXXXXXXXXXXXXXXXXXX............  ",
"                                                                ",
"                                                                ",
"                              ............XXXXXXXXXXXXXXXX......",
"                              ............XXXXXXXXXXXXXXXX......",
"                              XXXXXXXXXXXXXXXXXXXXXXXXXX........",
"                              XXXXXXXXXXXXXXXXXXXXXXXXXX........",
"                              XXXXXXXXXXXXXXXXXXXXXXXX..........",
"                              XXXXXXXXXXXXXXXXXXXXXXXX..........",
"                              ..XXXXXXXXXXXXXXXXXX..............",
"                              ..XXXXXXXXXXXXXXXXXX..............",
"                                                                ",
"                                                                ",
"......  ......XXXXXXXXXXXXXXXXXXXXXXXXXXXXXXXX          ......  ",
"......  ......XXXXXXXXXXXXXXXXXXXXXXXXXXXXXXXX          ......  ",
"......  XXXXXXXXXXXXXXXXXXXXXXXXXXXXXXXX......            ......",
"......  XXXXXXXXXXXXXXXXXXXXXXXXXXXXXXXX......            ......",
"......  XXXXXXXXXXXXXXXXXXXXXXXX..............              ....",
"......  XXXXXXXXXXXXXXXXXXXXXXXX..............              ....",
"......  XXXXXXXXXXXXXXXXXXXXXXXXXXXXXXXXXXXX..            ....  ",
"......  XXXXXXXXXXXXXXXXXXXXXXXXXXXXXXXXXXXX..            ....  ",
"                                                                ",
"                                                                ",
"                                                                ",
"                                                                ",
"                                      XXXXXXXXXXXXXXXXXXXXXXXX..",
"                                      XXXXXXXXXXXXXXXXXXXXXXXX..",
"                                      XXXXXXXXXXXXXXXXXXXXXX....",
"                                      XXXXXXXXXXXXXXXXXXXXXX....",
"                                      XXXXXXXXXXXXXXXXXXXXXX....",
"                                      XXXXXXXXXXXXXXXXXXXXXX....",
"                                  ..  XXXXXXXXXXXXXXXXXX........",
"                                  ..  XXXXXXXXXXXXXXXXXX........",
"                                                                ",
"                                                                ",
"..............  XXXXXXXXXXXXXXXXXXXXXXXXXXXXXXXX..............  ",
"..............  XXXXXXXXXXXXXXXXXXXXXXXXXXXXXXXX..............  ",
"..............  XXXXXXXXXXXXXXXXXXXXXXXXXXXXXXXXXXXXXXXXXXXXXX  ",
"..............  XXXXXXXXXXXXXXXXXXXXXXXXXXXXXXXXXXXXXXXXXXXXXX  ",
"..............  XXXXXXXXXXXXXXXXXXXXXXXXXXXXXXXXXXXXXXXXXXXXXX  ",
"..............  XXXXXXXXXXXXXXXXXXXXXXXXXXXXXXXXXXXXXXXXXXXXXX  ",
"..............  ............XXXXXXXXXXXXXXXXXXXXXXXXXXXXXXXXXX  ",
"..............  ............XXXXXXXXXXXXXXXXXXXXXXXXXXXXXXXXXX  ",
"                                                                ",
"                                                                ",
"  ......................              ..........                ",
"  ......................              ..........                ",
"  ......................                                        ",
"  ......................                                        ",
"  ......................                                        ",
"  ......................                                        ",
"  ......................  ....                        ..        ",
"  ......................  ....                        ..        ",
"                                                                ",
"                                                                "
};
